<svg xmlns="http://www.w3.org/2000/svg" xmlns:xlink="http://www.w3.org/1999/xlink" viewBox="0 0 91 115" version="1.1" x="0px" y="0px"><title>soda</title><desc>Created with Sketch.</desc><g stroke="none" stroke-width="1" fill="none" fill-rule="evenodd"><g stroke="#000000"><polyline stroke-width="2" points="31.9668395 19.2804348 27.2701681 25.455552 27.2701681 67.4049964"/><polyline stroke-width="2" transform="translate(29.618504, 49.842716) scale(1, -1) translate(-29.618504, -49.842716) " points="31.9668395 25.7804348 27.2701681 31.955552 27.2701681 73.9049964"/><polyline stroke-width="2" transform="translate(59.518504, 43.342716) scale(-1, 1) translate(-59.518504, -43.342716) " points="61.8668395 19.2804348 57.1701681 25.455552 57.1701681 67.4049964"/><polyline stroke-width="2" transform="translate(59.518504, 49.842716) scale(-1, -1) translate(-59.518504, -49.842716) " points="61.8668395 25.7804348 57.1701681 31.955552 57.1701681 73.9049964"/><polygon stroke-width="2" points="31.9668395 19.2804347 57.1701681 19.2804348 57.1701681 15.8910646 31.9668395 15.8910646"/><polygon stroke-width="2" points="31.9668395 76.4804347 57.1701681 76.4804348 57.1701681 73.0910646 31.9668395 73.0910646"/><path d="M45.8029882,15.6221254 L54.2411051,10.3918356" stroke-width="2"/><path d="M28.3480439,25.1252671 L61.5021195,25.1252671"/><path d="M28.3480439,68.1252671 L61.5021195,68.1252671"/></g></g><text x="0" y="107" fill="#000000" font-size="5px" font-weight="bold" font-family="'Helvetica Neue', Helvetica, Arial-Unicode, Arial, Sans-serif">Created by Kevin</text><text x="0" y="112" fill="#000000" font-size="5px" font-weight="bold" font-family="'Helvetica Neue', Helvetica, Arial-Unicode, Arial, Sans-serif">from the Noun Project</text></svg>